<svg xmlns="http://www.w3.org/2000/svg" xmlns:xlink="http://www.w3.org/1999/xlink" xmlns:inkscape="http://www.inkscape.org/namespaces/inkscape" version="1.1" width="595.28" height="595.28" viewBox="0 0 595.28 595.28">
<defs>
<clipPath id="clip_1">
<path transform="matrix(1,0,0,-1,0,595.28)" d="M0 595.28H595.28V0H0Z"/>
</clipPath>
</defs>
<g inkscape:groupmode="layer" inkscape:label="Layer 1">
<g clip-path="url(#clip_1)">
<path transform="matrix(1,0,0,-1,180.5206,424.4489)" d="M0 0C37.675-33.56 72.475-49.918 116.409-65.437L117.12-65.69 117.788-65.451C161.765-49.918 196.563-33.56 234.25 .009 265.159 27.626 282.891 70.463 282.891 117.523 282.891 139.722 279.324 160.893 271.665 184.151 269.798 189.732 267.631 195.531 265.536 201.139 261.523 211.886 257.37 223.001 254.589 234.367 252.162 244.47 251.196 253.9 251.631 263.239 252.763 287.37 261.785 306.377 280.027 323.057 282.131 325.015 282.786 328.11 281.605 330.708 280.395 333.404 277.724 334.911 274.801 334.625 256.909 332.81 237.47 332.834 217.004 334.685 200.061 336.216 142.891 343.05 118.614 366.635L117.148 368.048 115.699 366.639C91.418 343.05 34.246 336.216 17.301 334.685-3.222 332.834-22.684 332.814-40.551 334.624-40.789 334.648-41.027 334.661-41.263 334.661-43.888 334.661-46.272 333.148-47.354 330.739-48.514 328.12-47.871 324.994-45.733 323.008-27.546 306.377-18.523 287.37-17.394 263.243V263.241C-16.957 253.913-17.923 244.48-20.339 234.406-23.047 223.153-27.148 212.163-31.114 201.537-33.252 195.806-35.464 189.88-37.36 184.143-45.003 161.144-48.59 139.97-48.654 117.499-48.654 70.463-30.92 27.626 0 0" fill="#ebe7e0" fill-rule="evenodd"/>
<path transform="matrix(1,0,0,-1,187.8829,416.17454)" d="M0 0C35.612-31.752 67.454-47.128 109.759-62.298 152.103-47.141 183.944-31.77 219.513-.004 248.167 25.513 264.553 65.326 264.48 109.235 264.48 144.412 255.6 168.356 247.01 191.514 239.357 212.142 232.131 231.626 233.219 255.514 234.33 278.71 241.914 297.715 256.907 314.508 205.761 311.534 140.938 321.795 109.764 345.157 78.643 321.797 13.821 311.53-37.327 314.504-22.375 297.731-14.817 278.735-13.706 255.534V255.528C-12.579 231.596-19.818 212.077-27.48 191.412-36.06 168.276-44.931 144.354-44.966 109.241-44.966 65.32-28.577 25.499 0 0" fill="#b0a48a" fill-rule="evenodd"/>
<path transform="matrix(1,0,0,-1,293.046,82.54413)" d="M0 0C-31.224-20.708-82.972-28.699-124.087-28.977-115.811-43.292-111.302-59.274-110.427-77.689-109.889-89.502-111.167-100.899-113.859-112.364-118.031-130.085-125.231-146.901-130.816-164.204-137.277-184.217-140.709-203.188-140.709-224.382-140.709-262.393-128.192-300.821-100.199-326.601-68.302-355.925-38.693-371.352 0-385.875" fill="#231f20" fill-rule="evenodd"/>
<path transform="matrix(1,0,0,-1,302.2344,82.54413)" d="M0 0C31.224-20.708 82.972-28.699 124.087-28.977 115.81-43.292 111.301-59.274 110.427-77.689 109.888-89.502 111.167-100.899 113.858-112.364 118.03-130.085 125.23-146.901 130.815-164.204 137.276-184.217 140.708-203.188 140.708-224.382 140.708-262.393 128.191-300.821 100.198-326.601 68.302-355.925 38.692-371.352 0-385.875" fill="#ffffff" fill-rule="evenodd"/>
<path transform="matrix(1,0,0,-1,297.6402,538.87966)" d="M0 0 4.792 14.731H20.225L7.715 23.732 12.509 38.58 0 29.345-12.509 38.58-7.716 23.732-20.225 14.731H-4.793Z" fill="#b0a48a" fill-rule="evenodd"/>
<path transform="matrix(1,0,0,-1,236.0293,515.73117)" d="M0 0 7.833 10.054 19.757 5.729 12.626 16.25 20.459 26.304 8.184 22.797 1.053 33.319 .701 20.575-11.574 17.068 .468 12.742Z" fill="#b0a48a" fill-rule="evenodd"/>
<path transform="matrix(1,0,0,-1,359.251,515.73117)" d="M0 0-7.834 10.054-19.758 5.729-12.627 16.25-20.46 26.304-8.185 22.797-1.053 33.319-.701 20.575 11.573 17.068-.468 12.742Z" fill="#b0a48a" fill-rule="evenodd"/>
<path transform="matrix(1,0,0,-1,150.6001,419.15104)" d="M0 0C-.347-.348-.625-.626-1.042-.974-11.605-10.216-26.754-8.687-34.745 2.57-39.192 8.755-43.639 14.939-48.087 21.194-47.253 22.167-46.35 23.07-45.376 23.903-34.814 33.146-19.666 31.617-11.674 20.359L-2.224 7.227C-12.369 6.462-22.445 9.45-32.452 16.329-25.086 6.531-14.246 1.111 0 0" fill="#b0a48a" fill-rule="evenodd"/>
<path transform="matrix(1,0,0,-1,124.4024,378.49974)" d="M0 0C-11.327-4.865-23.974 .694-28.56 12.786-31.131 19.665-33.772 26.614-36.413 33.494-35.44 34.188-34.397 34.744-33.354 35.3-21.819 40.998-8.478 35.509-3.752 23.07L2.154 7.435C-8.27 11.118-16.608 18.692-22.792 30.089-20.638 17.649-12.995 7.573 0 0" fill="#b0a48a" fill-rule="evenodd"/>
<path transform="matrix(1,0,0,-1,113.4922,332.15113)" d="M0 0-.417-.068C-12.021-2.154-22.723 6.532-24.112 19.249-24.877 26.268-25.711 33.355-26.476 40.374-25.433 40.721-24.39 41-23.348 41.208-11.674 43.292-1.042 34.606 .417 21.89L2.016 7.366C-6.115 12.856-12.091 21.056-15.913 32.104-15.774 20.014-10.493 9.312 0 0" fill="#b0a48a" fill-rule="evenodd"/>
<path transform="matrix(1,0,0,-1,110.1568,283.43824)" d="M0 0C-9.242 2.988-15.079 13.272-13.203 24.182-12.09 30.784-10.909 37.385-9.798 43.987-8.825 43.987-7.782 43.917-6.81 43.778 3.961 42.041 11.119 30.853 9.034 18.901L6.185 2.362C-.347 9.659-3.474 19.04-3.127 30.575-6.74 20.847-5.698 10.632 0 0" fill="#b0a48a" fill-rule="evenodd"/>
<path transform="matrix(1,0,0,-1,121.6231,236.25464)" d="M0 0C-8.061 5.211-11.049 16.538-6.671 26.197-4.1 31.826-1.459 37.524 1.112 43.152 1.946 42.875 2.779 42.527 3.613 42.11 12.716 37.455 16.399 25.293 11.744 15.079L5.281 .973C2.432 8.13 2.015 16.19 3.891 25.155-.486 17.719-1.807 9.311 0 0" fill="#b0a48a" fill-rule="evenodd"/>
<path transform="matrix(1,0,0,-1,138.7178,190.60034)" d="M0 0C-5.49 3.335-8.062 10.84-5.768 17.303-4.309 21.125-2.919 24.947-1.529 28.769-.973 28.63-.348 28.352 .208 28.143 6.531 25.155 9.589 17.094 7.087 10.215L3.682 .903C1.111 5.559 .069 11.119 .555 17.511-1.738 11.952-1.946 6.115 0 0" fill="#b0a48a" fill-rule="evenodd"/>
<path transform="matrix(1,0,0,-1,182.565,452.99284)" d="M0 0C-.278-.348-.486-.626-.695-.973-7.922-10.771-20.985-12.23-29.811-4.309-34.744 .139-39.609 4.517-44.543 8.964-43.987 9.867-43.431 10.84-42.736 11.744-35.579 21.542-22.445 23.001-13.62 15.079L-3.266 5.698C-11.674 3.127-20.777 3.822-30.436 7.782-22.375 .903-12.23-1.668 0 0" fill="#b0a48a" fill-rule="evenodd"/>
<path transform="matrix(1,0,0,-1,214.253,476.20283)" d="M0 0C-.14-.348-.348-.625-.487-.903-5.837-9.867-16.886-12.229-25.086-6.184-29.603-2.779-34.189 .557-38.707 3.961-38.359 4.795-37.942 5.629-37.456 6.463-32.104 15.427-21.056 17.79-12.856 11.674L-3.197 4.587C-10.215 1.737-17.999 1.529-26.615 4.101-19.18-1.111-10.285-2.502 0 0" fill="#b0a48a" fill-rule="evenodd"/>
<path transform="matrix(1,0,0,-1,444.6797,419.15104)" d="M0 0C.348-.348 .695-.626 1.042-.974 11.605-10.216 26.754-8.687 34.814 2.57 39.192 8.755 43.64 14.939 48.087 21.194 47.253 22.167 46.35 23.07 45.377 23.903 34.814 33.146 19.666 31.617 11.674 20.359L2.224 7.227C12.438 6.462 22.515 9.45 32.452 16.329 25.086 6.531 14.246 1.111 0 0" fill="#b0a48a" fill-rule="evenodd"/>
<path transform="matrix(1,0,0,-1,470.9473,378.49974)" d="M0 0C11.257-4.865 23.904 .694 28.49 12.786 31.131 19.665 33.702 26.614 36.343 33.494 35.37 34.188 34.397 34.744 33.285 35.3 21.75 40.998 8.408 35.509 3.683 23.07L-2.224 7.435C8.199 11.118 16.538 18.692 22.723 30.089 20.568 17.649 12.994 7.573 0 0" fill="#b0a48a" fill-rule="evenodd"/>
<path transform="matrix(1,0,0,-1,481.7872,332.15113)" d="M0 0 .417-.068C12.022-2.154 22.724 6.532 24.113 19.249 24.947 26.268 25.712 33.355 26.476 40.374 25.503 40.721 24.461 41 23.349 41.208 11.744 43.292 1.042 34.606-.348 21.89L-1.945 7.366C6.185 12.856 12.161 21.056 15.913 32.104 15.844 20.014 10.493 9.312 0 0" fill="#b0a48a" fill-rule="evenodd"/>
<path transform="matrix(1,0,0,-1,485.1924,283.43824)" d="M0 0C9.242 2.988 15.01 13.272 13.134 24.182 12.021 30.784 10.84 37.385 9.729 43.987 8.756 43.987 7.782 43.917 6.74 43.778-4.03 42.041-11.188 30.853-9.104 18.901L-6.254 2.362C.277 9.659 3.404 19.04 3.058 30.575 6.671 20.847 5.629 10.632 0 0" fill="#b0a48a" fill-rule="evenodd"/>
<path transform="matrix(1,0,0,-1,473.6573,236.25464)" d="M0 0C8.061 5.211 11.049 16.538 6.671 26.197 4.1 31.826 1.528 37.524-1.042 43.152-1.946 42.875-2.779 42.527-3.614 42.11-12.717 37.455-16.4 25.293-11.744 15.079L-5.281 .973C-2.433 8.13-1.946 16.19-3.892 25.155 .556 17.719 1.807 9.311 0 0" fill="#b0a48a" fill-rule="evenodd"/>
<path transform="matrix(1,0,0,-1,456.5626,190.60034)" d="M0 0C5.56 3.335 8.131 10.84 5.768 17.303 4.378 21.125 2.988 24.947 1.599 28.769 .973 28.63 .417 28.352-.209 28.143-6.463 25.155-9.59 17.094-7.088 10.215L-3.683 .903C-1.111 5.559-.069 11.119-.556 17.511 1.807 11.952 1.945 6.115 0 0" fill="#b0a48a" fill-rule="evenodd"/>
<path transform="matrix(1,0,0,-1,412.7842,452.99284)" d="M0 0C.209-.348 .417-.626 .626-.973 7.853-10.771 20.916-12.23 29.741-4.309 34.675 .139 39.539 4.517 44.473 8.964 43.918 9.867 43.361 10.84 42.736 11.744 35.51 21.542 22.445 23.001 13.62 15.079L3.196 5.698C11.604 3.127 20.708 3.822 30.367 7.782 22.307 .903 12.23-1.668 0 0" fill="#b0a48a" fill-rule="evenodd"/>
<path transform="matrix(1,0,0,-1,381.0274,476.20283)" d="M0 0C.14-.348 .348-.625 .486-.903 5.837-9.867 16.886-12.229 25.086-6.184 29.672-2.779 34.188 .557 38.705 3.961 38.358 4.795 37.941 5.629 37.455 6.463 32.104 15.427 21.056 17.79 12.855 11.674L3.267 4.587C10.215 1.737 17.998 1.529 26.614 4.101 19.18-1.111 10.285-2.502 0 0" fill="#b0a48a" fill-rule="evenodd"/>
<path transform="matrix(1,0,0,-1,411.1807,311.86003)" d="M0 0C0-62.707-50.834-113.541-113.541-113.541-176.248-113.541-227.082-62.707-227.082 0-227.082 62.707-176.248 113.541-113.541 113.541-50.834 113.541 0 62.707 0 0" fill="#b0a48a"/>
<path transform="matrix(1,0,0,-1,397.7745,302.67164)" d="M0 0C-3.644 40.213-30.958 73.59-67.901 86.085V66.398C-41.255 54.991-21.812 29.895-18.471 0-18.133-3.018-17.954-6.082-17.954-9.188-17.954-12.294-18.133-15.358-18.471-18.376-22.187-51.639-45.836-78.964-77.165-88.098-83.047-89.812-89.198-90.887-95.54-91.238-97.062-91.322-98.593-91.369-100.134-91.369-101.676-91.369-103.208-91.322-104.729-91.238V63.656C-111.108 63.257-117.269 62.038-123.104 60.098-144.779 52.895-161.96 35.781-169.28 14.16H-149.489C-144.023 25.667-134.66 34.977-123.104 40.356V0H-159.954C-160.334-3.011-160.53-6.077-160.53-9.188-160.53-12.3-160.334-15.366-159.954-18.376H-123.104V-107.106C-117.164-108.494-111.021-109.353-104.729-109.636-103.205-109.704-101.675-109.745-100.134-109.745-98.595-109.745-97.063-109.704-95.54-109.636-89.247-109.353-83.104-108.494-77.165-107.106-35.59-97.392-3.942-61.884 0-18.376 .274-15.35 .422-12.286 .422-9.188 .422-6.09 .274-3.027 0 0" fill="#231f20"/>
<path transform="matrix(1,0,0,-1,320.6094,302.67164)" d="M0 0V40.356C11.557 34.977 20.92 25.667 26.385 14.16H46.176C38.855 35.781 21.675 52.895 0 60.098V88.729C-5.939 90.118-12.082 90.976-18.375 91.259-19.898 91.328-21.43 91.368-22.969 91.368-24.51 91.368-26.04 91.328-27.563 91.259-33.856 90.976-39.999 90.118-45.939 88.729-87.514 79.015-119.162 43.507-123.104 0-123.378-3.027-123.526-6.09-123.526-9.188-123.526-12.286-123.378-15.35-123.104-18.376-119.458-58.617-92.108-92.012-55.127-104.486V-84.807C-81.813-73.415-101.289-48.3-104.634-18.376-104.971-15.358-105.15-12.294-105.15-9.188-105.15-6.082-104.971-3.018-104.634 0-100.916 33.262-77.268 60.587-45.939 69.721-40.057 71.436-33.905 72.51-27.563 72.862-26.042 72.946-24.511 72.992-22.969 72.992-21.428 72.992-19.896 72.946-18.375 72.862V-82.032C-11.996-81.634-5.835-80.414 0-78.475V-18.376H36.85C37.229-15.366 37.427-12.3 37.427-9.188 37.427-6.077 37.229-3.011 36.85 0Z" fill="#ffffff"/>
</g>
</g>
</svg>
